<?xml version="1.0" standalone="no"?>
<!DOCTYPE svg PUBLIC "-//W3C//DTD SVG 20010904//EN"
 "http://www.w3.org/TR/2001/REC-SVG-20010904/DTD/svg10.dtd">
<svg version="1.0" xmlns="http://www.w3.org/2000/svg"
 width="662.000000pt" height="662.000000pt" viewBox="0 0 662.000000 662.000000"
 preserveAspectRatio="xMidYMid meet">
<metadata>
Created by potrace 1.11, written by Peter Selinger 2001-2013
</metadata>
<g transform="translate(0.000000,662.000000) scale(0.100000,-0.100000)"
fill="#000000" stroke="none">
<path d="M2420 4261 c-63 -24 -116 -60 -184 -122 -141 -129 -246 -252 -559
-659 -7 -9 -34 -45 -62 -80 -65 -85 -277 -352 -290 -366 -5 -6 -35 -40 -65
-75 -160 -186 -362 -368 -501 -450 -143 -85 -170 -91 -464 -95 -143 -2 -268
-4 -277 -4 -14 0 -18 -9 -18 -41 l0 -41 287 4 288 4 86 32 c76 29 225 115 288
168 231 191 486 481 846 959 16 22 35 47 42 55 6 8 67 84 134 169 150 189 310
362 363 393 9 5 16 -19 26 -90 7 -53 14 -105 16 -115 22 -124 22 -793 0 -902
-2 -11 -7 -58 -11 -104 -4 -47 -8 -92 -10 -101 -2 -9 -6 -56 -10 -106 -4 -49
-8 -98 -10 -110 -2 -11 -6 -69 -10 -127 l-7 -107 168 0 c190 0 211 3 220 34 9
30 273 563 334 676 29 52 67 122 85 155 191 353 384 645 541 821 61 69 93 93
91 71 -1 -6 4 -50 11 -97 24 -164 35 -341 34 -565 0 -138 -9 -375 -16 -411 -2
-11 -7 -55 -11 -98 -4 -43 -8 -86 -10 -95 -1 -9 -6 -56 -10 -106 -4 -49 -9
-103 -11 -120 -1 -16 -6 -77 -9 -135 -4 -58 -8 -111 -11 -118 -3 -11 34 -13
192 -10 l195 3 153 300 c225 443 391 735 576 1010 142 211 328 439 331 405 2
-17 4 -53 13 -275 18 -398 33 -616 62 -865 3 -30 8 -58 10 -61 2 -4 6 -24 10
-45 9 -59 52 -169 91 -235 58 -100 155 -182 268 -225 22 -8 410 -26 575 -26
131 -1 260 31 380 92 38 19 40 23 40 65 0 25 -2 45 -5 45 -3 0 -36 -15 -73
-34 -64 -32 -168 -69 -236 -83 -17 -3 -71 -6 -121 -6 -245 -1 -407 131 -494
403 -12 36 -23 77 -26 90 -17 88 -36 214 -40 265 -2 33 -7 89 -10 125 -3 36
-7 142 -10 235 -10 340 -18 429 -49 571 -15 69 -70 145 -120 163 -35 14 -123
14 -131 1 -3 -5 -13 -10 -21 -10 -27 0 -127 -75 -206 -155 -221 -220 -539
-722 -871 -1372 -28 -57 -55 -103 -60 -103 -4 0 -6 3 -4 8 4 6 8 49 22 237 27
351 24 862 -6 1055 -21 140 -80 259 -155 316 -33 25 -46 29 -104 29 -58 0 -73
-4 -124 -35 -224 -135 -538 -600 -938 -1390 l-99 -195 6 65 c4 36 9 79 11 95
2 17 7 64 10 105 3 41 7 86 10 100 18 107 26 700 11 808 -4 28 -10 69 -13 90
-9 62 -43 181 -64 221 -63 124 -171 169 -290 122z"/>
</g>
</svg>
