<?xml version="1.0" standalone="no"?>
<!DOCTYPE svg PUBLIC "-//W3C//DTD SVG 20010904//EN"
 "http://www.w3.org/TR/2001/REC-SVG-20010904/DTD/svg10.dtd">
<svg version="1.0" xmlns="http://www.w3.org/2000/svg"
 width="313.000000pt" height="313.000000pt" viewBox="0 0 313.000000 313.000000"
 preserveAspectRatio="xMidYMid meet">
<metadata>
Created by potrace 1.11, written by Peter Selinger 2001-2013
</metadata>
<g transform="translate(0.000000,313.000000) scale(0.100000,-0.100000)"
fill="#000000" stroke="none">
<path d="M1502 2206 c-90 -17 -197 -50 -268 -81 -30 -13 -98 -36 -152 -50
-123 -32 -312 -124 -418 -203 -290 -218 -489 -599 -483 -931 l2 -76 8 65 c35
265 58 352 135 506 108 217 310 420 524 529 60 30 240 99 240 91 0 -2 -24 -19
-54 -39 -90 -60 -198 -160 -266 -247 -87 -110 -93 -123 -33 -73 73 62 212 146
296 182 402 167 830 123 1185 -122 201 -138 361 -466 380 -777 8 -123 29 -142
24 -22 -7 182 -68 389 -163 552 -44 76 -6 41 61 -56 101 -146 186 -360 205
-519 l7 -55 93 0 93 0 7 68 c7 75 -7 240 -30 336 -86 375 -360 700 -713 847
-148 61 -249 81 -437 85 -116 2 -193 -1 -243 -10z"/>
</g>
</svg>
