<svg xmlns="http://www.w3.org/2000/svg" width="610.882" height="290.323" viewBox="0 0 610.882 290.323">
  <path id="Path_89" data-name="Path 89" d="M1237.062,70.773c-37.711-9.962-87.89,4.461-111.37,26.823s-19.618,52.76-2.383,77.333c7.127,10.16,17.021,20.158,32.32,25.489s36.34,1.916,46.307-15.3-8.643-53.851-23.842-61.564-46.84-.416-36.953,30.712,96.619,82.862,74.461,122.875-120.294,45.225-163.092,37.178-40.7-63.07-13.807-81.4c17.014-11.6,46.354-16.338,67.892-8.383s28.534,29.6,10.532,40.57c-22.277,13.578-62.289,2.15-74.821-15.816s-7.042-38.642-4.206-58.23a199.789,199.789,0,0,0-.244-59.059c-1.071-6.977-2.762-14.328-9.652-19.783s-20.73-7.923-29-3.317c-4.374,2.436-6.243,6.186-7.76,9.764-24.952,58.866-6.2,122.95-35.042,181.086-2.664,5.37-5.985,10.909-12.7,14.562s-17.779,4.625-24.043.662a12.044,12.044,0,0,1-5.428-8.864c-3.248-20.69,20.5-39.185,46.515-51.683,8.193-3.936,17-7.714,22.374-13.29,10.035-10.408,5.163-24.383-5.665-34.462s-26.621-17.442-40.578-25.8c-39-23.36-64.441-55.763-70.419-89.7C864.3,78.906,869.817,62.5,889.067,61.407c11.34-.644,21.625,5.273,25.373,12.141s2.376,14.413.336,21.57c-11.844,41.537-44.349,79.677-57.756,121.02-2.558,7.883-2.7,18.136,8.637,21.652a31.71,31.71,0,0,0,12.9.747c21.9-2.693,33.849-19.746,28.446-33.57s-23.38-24.267-42.7-31.384c-37.834-13.935-83.926-18.1-126.647-12.317-51.29,6.942-100.344,31.4-107.542,64.574-3.085,14.219,3.087,30.324,21.526,38.528,16.038,7.135,37.167,6.812,56.688,6.212l97.653-3c16.98-.524,34.784-.944,50.092,3.777s26.789,16.416,20.6,26.532c-9.132,14.932-47.482,12.037-60.68-1.6s-8.856-31.134-3.547-46.8c10.873-32.093,24.033-64.467,21.041-97.25-.912-9.994-12.956-23.31-26.457-18.23-5.145,1.935-7.284,5.921-8.9,9.594-21.448,48.824-19.781,100.487-32.972,150.492-3.9,14.8-10.433,30.806-29.462,39.611-7.521,3.48-18.05,5.479-26,2.415-8.013-3.086-10.087-9.847-10.555-15.816-2.415-30.819,16.839-60.6,21.538-91.311,1.177-7.692-2.608-18.287-14.7-18.1-8.669.132-13.782,6.123-16.86,11.3-21.77,36.624-37.279,87.8-37.477,126.977" transform="translate(-626.819 -58.855)" fill="none" stroke="#f5a0a7" stroke-miterlimit="10" stroke-width="5"/>
</svg>
